<mxfile host="Electron" modified="2024-06-02T03:56:43.815Z" agent="Mozilla/5.0 (Windows NT 10.0; Win64; x64) AppleWebKit/537.36 (KHTML, like Gecko) draw.io/21.8.2 Chrome/114.0.5735.289 Electron/25.8.1 Safari/537.36" etag="znqiM9mNXew0gBLGJALh" version="21.8.2" type="device" pages="3">
  <diagram name="DConceptual" id="KUkpYyPkw1ne2TjdVMxQ">
    <mxGraphModel dx="864" dy="499" grid="1" gridSize="5" guides="1" tooltips="1" connect="1" arrows="1" fold="1" page="1" pageScale="1" pageWidth="850" pageHeight="1100" math="0" shadow="0">
      <root>
        <mxCell id="0" />
        <mxCell id="1" parent="0" />
        <mxCell id="_zOBrn_QMmLkEiSbquyr-55" style="edgeStyle=orthogonalEdgeStyle;rounded=0;orthogonalLoop=1;jettySize=auto;html=1;entryX=0;entryY=0.5;entryDx=0;entryDy=0;" parent="1" source="_zOBrn_QMmLkEiSbquyr-48" target="_zOBrn_QMmLkEiSbquyr-50" edge="1">
          <mxGeometry relative="1" as="geometry">
            <Array as="points">
              <mxPoint x="315" y="325" />
              <mxPoint x="315" y="295" />
            </Array>
          </mxGeometry>
        </mxCell>
        <mxCell id="_zOBrn_QMmLkEiSbquyr-56" style="edgeStyle=orthogonalEdgeStyle;rounded=0;orthogonalLoop=1;jettySize=auto;html=1;entryX=0;entryY=0.5;entryDx=0;entryDy=0;" parent="1" source="_zOBrn_QMmLkEiSbquyr-48" target="_zOBrn_QMmLkEiSbquyr-51" edge="1">
          <mxGeometry relative="1" as="geometry">
            <Array as="points">
              <mxPoint x="315" y="325" />
              <mxPoint x="315" y="355" />
            </Array>
          </mxGeometry>
        </mxCell>
        <mxCell id="_zOBrn_QMmLkEiSbquyr-48" value="E" style="text;strokeColor=none;align=center;fillColor=none;html=1;verticalAlign=middle;whiteSpace=wrap;rounded=0;strokeWidth=0;" parent="1" vertex="1">
          <mxGeometry x="275" y="310" width="30" height="30" as="geometry" />
        </mxCell>
        <mxCell id="_zOBrn_QMmLkEiSbquyr-64" style="edgeStyle=orthogonalEdgeStyle;rounded=0;orthogonalLoop=1;jettySize=auto;html=1;entryX=0;entryY=0.5;entryDx=0;entryDy=0;" parent="1" source="_zOBrn_QMmLkEiSbquyr-49" target="_zOBrn_QMmLkEiSbquyr-59" edge="1">
          <mxGeometry relative="1" as="geometry">
            <Array as="points">
              <mxPoint x="315" y="480" />
              <mxPoint x="315" y="420" />
            </Array>
          </mxGeometry>
        </mxCell>
        <mxCell id="_zOBrn_QMmLkEiSbquyr-65" style="edgeStyle=orthogonalEdgeStyle;rounded=0;orthogonalLoop=1;jettySize=auto;html=1;entryX=0;entryY=0.5;entryDx=0;entryDy=0;" parent="1" source="_zOBrn_QMmLkEiSbquyr-49" target="_zOBrn_QMmLkEiSbquyr-60" edge="1">
          <mxGeometry relative="1" as="geometry" />
        </mxCell>
        <mxCell id="_zOBrn_QMmLkEiSbquyr-66" style="edgeStyle=orthogonalEdgeStyle;rounded=0;orthogonalLoop=1;jettySize=auto;html=1;entryX=0;entryY=0.5;entryDx=0;entryDy=0;" parent="1" source="_zOBrn_QMmLkEiSbquyr-49" target="_zOBrn_QMmLkEiSbquyr-61" edge="1">
          <mxGeometry relative="1" as="geometry">
            <Array as="points">
              <mxPoint x="315" y="480" />
              <mxPoint x="315" y="540" />
            </Array>
          </mxGeometry>
        </mxCell>
        <mxCell id="_zOBrn_QMmLkEiSbquyr-49" value="S" style="text;strokeColor=none;align=center;fillColor=none;html=1;verticalAlign=middle;whiteSpace=wrap;rounded=0;" parent="1" vertex="1">
          <mxGeometry x="275" y="465" width="30" height="30" as="geometry" />
        </mxCell>
        <mxCell id="_zOBrn_QMmLkEiSbquyr-57" style="edgeStyle=orthogonalEdgeStyle;rounded=0;orthogonalLoop=1;jettySize=auto;html=1;" parent="1" source="_zOBrn_QMmLkEiSbquyr-50" target="_zOBrn_QMmLkEiSbquyr-52" edge="1">
          <mxGeometry relative="1" as="geometry" />
        </mxCell>
        <mxCell id="_zOBrn_QMmLkEiSbquyr-58" style="edgeStyle=orthogonalEdgeStyle;rounded=0;orthogonalLoop=1;jettySize=auto;html=1;" parent="1" source="_zOBrn_QMmLkEiSbquyr-50" target="_zOBrn_QMmLkEiSbquyr-53" edge="1">
          <mxGeometry relative="1" as="geometry" />
        </mxCell>
        <mxCell id="_zOBrn_QMmLkEiSbquyr-50" value="&lt;font style=&quot;font-size: 10px;&quot;&gt;Pantalla de E&lt;/font&gt;" style="text;strokeColor=default;align=center;fillColor=none;html=1;verticalAlign=middle;whiteSpace=wrap;rounded=0;" parent="1" vertex="1">
          <mxGeometry x="335" y="280" width="85" height="30" as="geometry" />
        </mxCell>
        <mxCell id="_zOBrn_QMmLkEiSbquyr-51" value="&lt;font style=&quot;font-size: 10px;&quot;&gt;Formulario planos&lt;/font&gt;" style="text;strokeColor=default;align=center;fillColor=none;html=1;verticalAlign=middle;whiteSpace=wrap;rounded=0;" parent="1" vertex="1">
          <mxGeometry x="335" y="340" width="85" height="30" as="geometry" />
        </mxCell>
        <mxCell id="_zOBrn_QMmLkEiSbquyr-52" value="&lt;font style=&quot;font-size: 10px;&quot;&gt;Pantalla de ingreso de datos&lt;/font&gt;" style="text;strokeColor=default;align=center;fillColor=none;html=1;verticalAlign=middle;whiteSpace=wrap;rounded=0;" parent="1" vertex="1">
          <mxGeometry x="460" y="255" width="115" height="30" as="geometry" />
        </mxCell>
        <mxCell id="_zOBrn_QMmLkEiSbquyr-53" value="&lt;font style=&quot;font-size: 10px;&quot;&gt;Pantalla de menÃº&lt;/font&gt;" style="text;strokeColor=default;align=center;fillColor=none;html=1;verticalAlign=middle;whiteSpace=wrap;rounded=0;" parent="1" vertex="1">
          <mxGeometry x="460" y="305" width="115" height="30" as="geometry" />
        </mxCell>
        <mxCell id="_zOBrn_QMmLkEiSbquyr-67" style="edgeStyle=orthogonalEdgeStyle;rounded=0;orthogonalLoop=1;jettySize=auto;html=1;entryX=0;entryY=0.5;entryDx=0;entryDy=0;" parent="1" source="_zOBrn_QMmLkEiSbquyr-59" target="_zOBrn_QMmLkEiSbquyr-62" edge="1">
          <mxGeometry relative="1" as="geometry" />
        </mxCell>
        <mxCell id="_zOBrn_QMmLkEiSbquyr-68" style="edgeStyle=orthogonalEdgeStyle;rounded=0;orthogonalLoop=1;jettySize=auto;html=1;" parent="1" source="_zOBrn_QMmLkEiSbquyr-59" target="_zOBrn_QMmLkEiSbquyr-63" edge="1">
          <mxGeometry relative="1" as="geometry" />
        </mxCell>
        <mxCell id="_zOBrn_QMmLkEiSbquyr-59" value="&lt;font style=&quot;font-size: 10px;&quot;&gt;Pantalla de S&lt;/font&gt;" style="text;strokeColor=default;align=center;fillColor=none;html=1;verticalAlign=middle;whiteSpace=wrap;rounded=0;" parent="1" vertex="1">
          <mxGeometry x="335" y="405" width="85" height="30" as="geometry" />
        </mxCell>
        <mxCell id="_zOBrn_QMmLkEiSbquyr-60" value="&lt;font style=&quot;font-size: 10px;&quot;&gt;Formulario contenidos&lt;/font&gt;" style="text;strokeColor=default;align=center;fillColor=none;html=1;verticalAlign=middle;whiteSpace=wrap;rounded=0;" parent="1" vertex="1">
          <mxGeometry x="335" y="465" width="85" height="30" as="geometry" />
        </mxCell>
        <mxCell id="_zOBrn_QMmLkEiSbquyr-61" value="&lt;font style=&quot;font-size: 10px;&quot;&gt;Informes/reportes&lt;/font&gt;" style="text;strokeColor=default;align=center;fillColor=none;html=1;verticalAlign=middle;whiteSpace=wrap;rounded=0;" parent="1" vertex="1">
          <mxGeometry x="335" y="525" width="85" height="30" as="geometry" />
        </mxCell>
        <mxCell id="_zOBrn_QMmLkEiSbquyr-62" value="&lt;font style=&quot;font-size: 10px;&quot;&gt;Pantalla de respuesta consultas&lt;/font&gt;" style="text;strokeColor=default;align=center;fillColor=none;html=1;verticalAlign=middle;whiteSpace=wrap;rounded=0;" parent="1" vertex="1">
          <mxGeometry x="460" y="380" width="115" height="30" as="geometry" />
        </mxCell>
        <mxCell id="_zOBrn_QMmLkEiSbquyr-63" value="&lt;font style=&quot;font-size: 10px;&quot;&gt;Pantalla de mensaje&lt;/font&gt;" style="text;strokeColor=default;align=center;fillColor=none;html=1;verticalAlign=middle;whiteSpace=wrap;rounded=0;" parent="1" vertex="1">
          <mxGeometry x="460" y="430" width="115" height="30" as="geometry" />
        </mxCell>
      </root>
    </mxGraphModel>
  </diagram>
  <diagram id="hMmP4oW-R7v7TuR4ore1" name="Alt_des_SI">
    <mxGraphModel dx="864" dy="499" grid="1" gridSize="10" guides="1" tooltips="1" connect="1" arrows="1" fold="1" page="1" pageScale="1" pageWidth="850" pageHeight="1100" math="0" shadow="0">
      <root>
        <mxCell id="0" />
        <mxCell id="1" parent="0" />
        <mxCell id="QLfyUDLFE-TsC3Fm9gjc-13" style="edgeStyle=orthogonalEdgeStyle;rounded=0;orthogonalLoop=1;jettySize=auto;html=1;entryX=0.5;entryY=0;entryDx=0;entryDy=0;" edge="1" parent="1" source="QLfyUDLFE-TsC3Fm9gjc-1" target="QLfyUDLFE-TsC3Fm9gjc-3">
          <mxGeometry relative="1" as="geometry">
            <Array as="points">
              <mxPoint x="400" y="370" />
              <mxPoint x="570" y="370" />
            </Array>
          </mxGeometry>
        </mxCell>
        <mxCell id="QLfyUDLFE-TsC3Fm9gjc-14" style="edgeStyle=orthogonalEdgeStyle;rounded=0;orthogonalLoop=1;jettySize=auto;html=1;" edge="1" parent="1" source="QLfyUDLFE-TsC3Fm9gjc-1" target="QLfyUDLFE-TsC3Fm9gjc-2">
          <mxGeometry relative="1" as="geometry">
            <Array as="points">
              <mxPoint x="400" y="370" />
              <mxPoint x="240" y="370" />
            </Array>
          </mxGeometry>
        </mxCell>
        <mxCell id="QLfyUDLFE-TsC3Fm9gjc-1" value="&lt;font face=&quot;Tahoma&quot;&gt;Alternativa de desarrollo de un S.I&lt;/font&gt;" style="rounded=0;whiteSpace=wrap;html=1;" vertex="1" parent="1">
          <mxGeometry x="340" y="290" width="120" height="60" as="geometry" />
        </mxCell>
        <mxCell id="QLfyUDLFE-TsC3Fm9gjc-2" value="&lt;font face=&quot;Tahoma&quot;&gt;Interna&lt;/font&gt;" style="rounded=0;whiteSpace=wrap;html=1;" vertex="1" parent="1">
          <mxGeometry x="180" y="400" width="120" height="60" as="geometry" />
        </mxCell>
        <mxCell id="QLfyUDLFE-TsC3Fm9gjc-10" style="edgeStyle=orthogonalEdgeStyle;rounded=0;orthogonalLoop=1;jettySize=auto;html=1;" edge="1" parent="1" source="QLfyUDLFE-TsC3Fm9gjc-3" target="QLfyUDLFE-TsC3Fm9gjc-7">
          <mxGeometry relative="1" as="geometry" />
        </mxCell>
        <mxCell id="QLfyUDLFE-TsC3Fm9gjc-11" style="edgeStyle=orthogonalEdgeStyle;rounded=0;orthogonalLoop=1;jettySize=auto;html=1;entryX=0.5;entryY=0;entryDx=0;entryDy=0;" edge="1" parent="1" source="QLfyUDLFE-TsC3Fm9gjc-3" target="QLfyUDLFE-TsC3Fm9gjc-8">
          <mxGeometry relative="1" as="geometry" />
        </mxCell>
        <mxCell id="QLfyUDLFE-TsC3Fm9gjc-3" value="&lt;font face=&quot;Tahoma&quot;&gt;Externa&lt;/font&gt;" style="rounded=0;whiteSpace=wrap;html=1;" vertex="1" parent="1">
          <mxGeometry x="510" y="400" width="120" height="60" as="geometry" />
        </mxCell>
        <mxCell id="QLfyUDLFE-TsC3Fm9gjc-18" style="edgeStyle=orthogonalEdgeStyle;rounded=0;orthogonalLoop=1;jettySize=auto;html=1;entryX=0.5;entryY=0;entryDx=0;entryDy=0;" edge="1" parent="1" source="QLfyUDLFE-TsC3Fm9gjc-7" target="QLfyUDLFE-TsC3Fm9gjc-15">
          <mxGeometry relative="1" as="geometry" />
        </mxCell>
        <mxCell id="QLfyUDLFE-TsC3Fm9gjc-19" style="edgeStyle=orthogonalEdgeStyle;rounded=0;orthogonalLoop=1;jettySize=auto;html=1;entryX=0.5;entryY=0;entryDx=0;entryDy=0;" edge="1" parent="1" source="QLfyUDLFE-TsC3Fm9gjc-7" target="QLfyUDLFE-TsC3Fm9gjc-16">
          <mxGeometry relative="1" as="geometry">
            <Array as="points">
              <mxPoint x="450" y="590" />
              <mxPoint x="600" y="590" />
            </Array>
          </mxGeometry>
        </mxCell>
        <mxCell id="QLfyUDLFE-TsC3Fm9gjc-20" style="edgeStyle=orthogonalEdgeStyle;rounded=0;orthogonalLoop=1;jettySize=auto;html=1;" edge="1" parent="1" source="QLfyUDLFE-TsC3Fm9gjc-7" target="QLfyUDLFE-TsC3Fm9gjc-17">
          <mxGeometry relative="1" as="geometry">
            <Array as="points">
              <mxPoint x="450" y="590" />
              <mxPoint x="300" y="590" />
            </Array>
          </mxGeometry>
        </mxCell>
        <mxCell id="QLfyUDLFE-TsC3Fm9gjc-7" value="&lt;font face=&quot;Tahoma&quot;&gt;Contratar Desarrollo&lt;/font&gt;" style="rounded=0;whiteSpace=wrap;html=1;" vertex="1" parent="1">
          <mxGeometry x="390" y="510" width="120" height="60" as="geometry" />
        </mxCell>
        <mxCell id="QLfyUDLFE-TsC3Fm9gjc-8" value="&lt;font face=&quot;Tahoma&quot;&gt;Comprar un producto del mercado&lt;/font&gt;" style="rounded=0;whiteSpace=wrap;html=1;" vertex="1" parent="1">
          <mxGeometry x="630" y="510" width="120" height="60" as="geometry" />
        </mxCell>
        <mxCell id="QLfyUDLFE-TsC3Fm9gjc-27" style="edgeStyle=orthogonalEdgeStyle;rounded=0;orthogonalLoop=1;jettySize=auto;html=1;" edge="1" parent="1" source="QLfyUDLFE-TsC3Fm9gjc-15" target="QLfyUDLFE-TsC3Fm9gjc-24">
          <mxGeometry relative="1" as="geometry" />
        </mxCell>
        <mxCell id="QLfyUDLFE-TsC3Fm9gjc-15" value="&lt;font face=&quot;Tahoma&quot;&gt;Riesgos&lt;/font&gt;" style="rounded=0;whiteSpace=wrap;html=1;" vertex="1" parent="1">
          <mxGeometry x="390" y="620" width="120" height="60" as="geometry" />
        </mxCell>
        <mxCell id="QLfyUDLFE-TsC3Fm9gjc-28" style="edgeStyle=orthogonalEdgeStyle;rounded=0;orthogonalLoop=1;jettySize=auto;html=1;entryX=0.5;entryY=0;entryDx=0;entryDy=0;" edge="1" parent="1" source="QLfyUDLFE-TsC3Fm9gjc-16" target="QLfyUDLFE-TsC3Fm9gjc-23">
          <mxGeometry relative="1" as="geometry" />
        </mxCell>
        <mxCell id="QLfyUDLFE-TsC3Fm9gjc-16" value="&lt;font face=&quot;Tahoma&quot;&gt;Consideraciones&lt;/font&gt;" style="rounded=0;whiteSpace=wrap;html=1;" vertex="1" parent="1">
          <mxGeometry x="540" y="620" width="120" height="60" as="geometry" />
        </mxCell>
        <mxCell id="QLfyUDLFE-TsC3Fm9gjc-26" style="edgeStyle=orthogonalEdgeStyle;rounded=0;orthogonalLoop=1;jettySize=auto;html=1;entryX=0.5;entryY=0;entryDx=0;entryDy=0;" edge="1" parent="1" source="QLfyUDLFE-TsC3Fm9gjc-17" target="QLfyUDLFE-TsC3Fm9gjc-25">
          <mxGeometry relative="1" as="geometry" />
        </mxCell>
        <mxCell id="QLfyUDLFE-TsC3Fm9gjc-17" value="&lt;font face=&quot;Tahoma&quot;&gt;Razones&lt;/font&gt;" style="rounded=0;whiteSpace=wrap;html=1;" vertex="1" parent="1">
          <mxGeometry x="240" y="620" width="120" height="60" as="geometry" />
        </mxCell>
        <mxCell id="QLfyUDLFE-TsC3Fm9gjc-23" value="&lt;font style=&quot;font-size: 10px;&quot; face=&quot;Tahoma&quot;&gt;- Trabajo conjunto&lt;br&gt;- Definicion actividades&lt;br&gt;- Definicion responsab.&lt;br&gt;- Multa de incumplimiento&lt;br&gt;- Clausula de pertenencia del sistema&lt;br&gt;&lt;/font&gt;" style="rounded=0;whiteSpace=wrap;html=1;align=left;" vertex="1" parent="1">
          <mxGeometry x="540" y="730" width="120" height="140" as="geometry" />
        </mxCell>
        <mxCell id="QLfyUDLFE-TsC3Fm9gjc-24" value="&lt;font style=&quot;font-size: 10px;&quot;&gt;- Perdida de experiencia y conocimiento&lt;br&gt;- Dependencia externa&lt;br&gt;- Perdida de control&lt;br&gt;- Seguridad&lt;br&gt;- Confidencialidad&lt;br&gt;- Pertenencia del sistema&lt;br&gt;&lt;/font&gt;" style="rounded=0;whiteSpace=wrap;html=1;align=left;" vertex="1" parent="1">
          <mxGeometry x="390" y="730" width="120" height="140" as="geometry" />
        </mxCell>
        <mxCell id="QLfyUDLFE-TsC3Fm9gjc-25" value="&lt;font style=&quot;font-size: 10px;&quot;&gt;- Falta de personal calificado&lt;br&gt;- Evitar el aumento de personal&lt;br&gt;- Concentrarse en el negocio&lt;br&gt;- Aumenta la velocidad de la infraestructura del SI&lt;/font&gt;" style="rounded=0;whiteSpace=wrap;html=1;align=left;" vertex="1" parent="1">
          <mxGeometry x="240" y="730" width="120" height="140" as="geometry" />
        </mxCell>
      </root>
    </mxGraphModel>
  </diagram>
  <diagram id="311OPcB-PDeUK_U9Hgs_" name="Archivos">
    <mxGraphModel dx="596" dy="344" grid="1" gridSize="10" guides="1" tooltips="1" connect="1" arrows="1" fold="1" page="1" pageScale="1" pageWidth="850" pageHeight="1100" math="0" shadow="0">
      <root>
        <mxCell id="0" />
        <mxCell id="1" parent="0" />
        <mxCell id="6XeNxgISlSEpqVUCB1jk-44" value="" style="ellipse;whiteSpace=wrap;html=1;strokeColor=#21FF55;" vertex="1" parent="1">
          <mxGeometry x="360" y="420" width="200" height="80" as="geometry" />
        </mxCell>
        <mxCell id="6XeNxgISlSEpqVUCB1jk-5" value="" style="endArrow=none;html=1;rounded=0;" edge="1" parent="1">
          <mxGeometry width="50" height="50" relative="1" as="geometry">
            <mxPoint x="400" y="280" as="sourcePoint" />
            <mxPoint x="400" y="220" as="targetPoint" />
          </mxGeometry>
        </mxCell>
        <mxCell id="6XeNxgISlSEpqVUCB1jk-6" value="" style="endArrow=none;html=1;rounded=0;exitX=1;exitY=0;exitDx=0;exitDy=0;" edge="1" parent="1">
          <mxGeometry width="50" height="50" relative="1" as="geometry">
            <mxPoint x="520" y="220" as="sourcePoint" />
            <mxPoint x="400" y="220" as="targetPoint" />
          </mxGeometry>
        </mxCell>
        <mxCell id="6XeNxgISlSEpqVUCB1jk-7" value="" style="endArrow=none;html=1;rounded=0;exitX=1;exitY=1;exitDx=0;exitDy=0;" edge="1" parent="1">
          <mxGeometry width="50" height="50" relative="1" as="geometry">
            <mxPoint x="520" y="280" as="sourcePoint" />
            <mxPoint x="400" y="280" as="targetPoint" />
          </mxGeometry>
        </mxCell>
        <mxCell id="6XeNxgISlSEpqVUCB1jk-11" value="" style="endArrow=none;html=1;rounded=0;" edge="1" parent="1">
          <mxGeometry width="50" height="50" relative="1" as="geometry">
            <mxPoint x="400" y="350" as="sourcePoint" />
            <mxPoint x="400" y="290" as="targetPoint" />
          </mxGeometry>
        </mxCell>
        <mxCell id="6XeNxgISlSEpqVUCB1jk-12" value="" style="endArrow=none;html=1;rounded=0;" edge="1" parent="1">
          <mxGeometry width="50" height="50" relative="1" as="geometry">
            <mxPoint x="520" y="290" as="sourcePoint" />
            <mxPoint x="400" y="290" as="targetPoint" />
          </mxGeometry>
        </mxCell>
        <mxCell id="6XeNxgISlSEpqVUCB1jk-13" value="" style="endArrow=none;html=1;rounded=0;" edge="1" parent="1">
          <mxGeometry width="50" height="50" relative="1" as="geometry">
            <mxPoint x="520" y="350" as="sourcePoint" />
            <mxPoint x="400" y="350" as="targetPoint" />
          </mxGeometry>
        </mxCell>
        <mxCell id="6XeNxgISlSEpqVUCB1jk-17" value="" style="endArrow=none;html=1;rounded=0;" edge="1" parent="1">
          <mxGeometry width="50" height="50" relative="1" as="geometry">
            <mxPoint x="424" y="350" as="sourcePoint" />
            <mxPoint x="424" y="290" as="targetPoint" />
          </mxGeometry>
        </mxCell>
        <mxCell id="6XeNxgISlSEpqVUCB1jk-18" value="" style="endArrow=none;html=1;rounded=0;" edge="1" parent="1">
          <mxGeometry width="50" height="50" relative="1" as="geometry">
            <mxPoint x="399.68" y="420" as="sourcePoint" />
            <mxPoint x="399.68" y="360" as="targetPoint" />
          </mxGeometry>
        </mxCell>
        <mxCell id="6XeNxgISlSEpqVUCB1jk-19" value="" style="endArrow=none;html=1;rounded=0;" edge="1" parent="1">
          <mxGeometry width="50" height="50" relative="1" as="geometry">
            <mxPoint x="519.68" y="360" as="sourcePoint" />
            <mxPoint x="399.68" y="360" as="targetPoint" />
          </mxGeometry>
        </mxCell>
        <mxCell id="6XeNxgISlSEpqVUCB1jk-20" value="" style="endArrow=none;html=1;rounded=0;" edge="1" parent="1">
          <mxGeometry width="50" height="50" relative="1" as="geometry">
            <mxPoint x="519.68" y="420" as="sourcePoint" />
            <mxPoint x="399.68" y="420" as="targetPoint" />
          </mxGeometry>
        </mxCell>
        <mxCell id="6XeNxgISlSEpqVUCB1jk-21" value="" style="endArrow=none;html=1;rounded=0;" edge="1" parent="1">
          <mxGeometry width="50" height="50" relative="1" as="geometry">
            <mxPoint x="519.68" y="420" as="sourcePoint" />
            <mxPoint x="519.68" y="360" as="targetPoint" />
          </mxGeometry>
        </mxCell>
        <mxCell id="6XeNxgISlSEpqVUCB1jk-22" value="" style="endArrow=none;html=1;rounded=0;" edge="1" parent="1">
          <mxGeometry width="50" height="50" relative="1" as="geometry">
            <mxPoint x="400" y="490" as="sourcePoint" />
            <mxPoint x="400" y="430" as="targetPoint" />
          </mxGeometry>
        </mxCell>
        <mxCell id="6XeNxgISlSEpqVUCB1jk-23" value="" style="endArrow=none;html=1;rounded=0;" edge="1" parent="1">
          <mxGeometry width="50" height="50" relative="1" as="geometry">
            <mxPoint x="520" y="430" as="sourcePoint" />
            <mxPoint x="400" y="430" as="targetPoint" />
          </mxGeometry>
        </mxCell>
        <mxCell id="6XeNxgISlSEpqVUCB1jk-24" value="" style="endArrow=none;html=1;rounded=0;" edge="1" parent="1">
          <mxGeometry width="50" height="50" relative="1" as="geometry">
            <mxPoint x="520" y="490" as="sourcePoint" />
            <mxPoint x="400" y="490" as="targetPoint" />
          </mxGeometry>
        </mxCell>
        <mxCell id="6XeNxgISlSEpqVUCB1jk-25" value="" style="endArrow=none;html=1;rounded=0;" edge="1" parent="1">
          <mxGeometry width="50" height="50" relative="1" as="geometry">
            <mxPoint x="520" y="490" as="sourcePoint" />
            <mxPoint x="520" y="430" as="targetPoint" />
          </mxGeometry>
        </mxCell>
        <mxCell id="6XeNxgISlSEpqVUCB1jk-26" value="" style="endArrow=none;html=1;rounded=0;" edge="1" parent="1">
          <mxGeometry width="50" height="50" relative="1" as="geometry">
            <mxPoint x="425" y="490" as="sourcePoint" />
            <mxPoint x="425" y="430" as="targetPoint" />
          </mxGeometry>
        </mxCell>
        <mxCell id="6XeNxgISlSEpqVUCB1jk-28" value="" style="endArrow=none;html=1;rounded=0;" edge="1" parent="1">
          <mxGeometry width="50" height="50" relative="1" as="geometry">
            <mxPoint x="520" y="529.6800000000001" as="sourcePoint" />
            <mxPoint x="400" y="529.6800000000001" as="targetPoint" />
          </mxGeometry>
        </mxCell>
        <mxCell id="6XeNxgISlSEpqVUCB1jk-29" value="" style="endArrow=none;html=1;rounded=0;" edge="1" parent="1">
          <mxGeometry width="50" height="50" relative="1" as="geometry">
            <mxPoint x="520" y="609.6800000000001" as="sourcePoint" />
            <mxPoint x="400" y="609.6800000000001" as="targetPoint" />
          </mxGeometry>
        </mxCell>
        <mxCell id="6XeNxgISlSEpqVUCB1jk-30" value="" style="endArrow=none;html=1;rounded=0;" edge="1" parent="1">
          <mxGeometry width="50" height="50" relative="1" as="geometry">
            <mxPoint x="520" y="589.6800000000001" as="sourcePoint" />
            <mxPoint x="400" y="589.6800000000001" as="targetPoint" />
          </mxGeometry>
        </mxCell>
        <mxCell id="6XeNxgISlSEpqVUCB1jk-39" value="Archivos" style="text;strokeColor=none;align=center;fillColor=none;html=1;verticalAlign=middle;whiteSpace=wrap;rounded=0;" vertex="1" parent="1">
          <mxGeometry x="430" y="445" width="60" height="30" as="geometry" />
        </mxCell>
        <mxCell id="6XeNxgISlSEpqVUCB1jk-45" value="" style="endArrow=none;html=1;rounded=0;strokeColor=#FF230A;" edge="1" parent="1">
          <mxGeometry width="50" height="50" relative="1" as="geometry">
            <mxPoint x="440" y="420" as="sourcePoint" />
            <mxPoint x="480" y="360" as="targetPoint" />
            <Array as="points">
              <mxPoint x="460" y="390" />
            </Array>
          </mxGeometry>
        </mxCell>
        <mxCell id="6XeNxgISlSEpqVUCB1jk-47" value="" style="endArrow=none;html=1;rounded=0;strokeColor=#FF230A;" edge="1" parent="1">
          <mxGeometry width="50" height="50" relative="1" as="geometry">
            <mxPoint x="480" y="420" as="sourcePoint" />
            <mxPoint x="440" y="360" as="targetPoint" />
            <Array as="points">
              <mxPoint x="460" y="390" />
            </Array>
          </mxGeometry>
        </mxCell>
        <mxCell id="6XeNxgISlSEpqVUCB1jk-48" value="" style="endArrow=none;html=1;rounded=0;strokeColor=#FF230A;" edge="1" parent="1">
          <mxGeometry width="50" height="50" relative="1" as="geometry">
            <mxPoint x="440" y="350" as="sourcePoint" />
            <mxPoint x="480" y="290" as="targetPoint" />
            <Array as="points">
              <mxPoint x="460" y="320" />
            </Array>
          </mxGeometry>
        </mxCell>
        <mxCell id="6XeNxgISlSEpqVUCB1jk-49" value="" style="endArrow=none;html=1;rounded=0;strokeColor=#FF230A;" edge="1" parent="1">
          <mxGeometry width="50" height="50" relative="1" as="geometry">
            <mxPoint x="480" y="350" as="sourcePoint" />
            <mxPoint x="440" y="290" as="targetPoint" />
            <Array as="points">
              <mxPoint x="460" y="320" />
            </Array>
          </mxGeometry>
        </mxCell>
        <mxCell id="6XeNxgISlSEpqVUCB1jk-52" value="" style="endArrow=none;html=1;rounded=0;strokeColor=#FF230A;" edge="1" parent="1">
          <mxGeometry width="50" height="50" relative="1" as="geometry">
            <mxPoint x="440" y="280" as="sourcePoint" />
            <mxPoint x="480" y="220" as="targetPoint" />
            <Array as="points">
              <mxPoint x="460" y="250" />
            </Array>
          </mxGeometry>
        </mxCell>
        <mxCell id="6XeNxgISlSEpqVUCB1jk-53" value="" style="endArrow=none;html=1;rounded=0;strokeColor=#FF230A;" edge="1" parent="1">
          <mxGeometry width="50" height="50" relative="1" as="geometry">
            <mxPoint x="480" y="280" as="sourcePoint" />
            <mxPoint x="440" y="220" as="targetPoint" />
            <Array as="points">
              <mxPoint x="460" y="250" />
            </Array>
          </mxGeometry>
        </mxCell>
        <mxCell id="6XeNxgISlSEpqVUCB1jk-54" value="" style="endArrow=none;html=1;rounded=0;strokeColor=#FF230A;" edge="1" parent="1">
          <mxGeometry width="50" height="50" relative="1" as="geometry">
            <mxPoint x="440" y="560" as="sourcePoint" />
            <mxPoint x="480" y="500" as="targetPoint" />
            <Array as="points">
              <mxPoint x="460" y="530" />
            </Array>
          </mxGeometry>
        </mxCell>
        <mxCell id="6XeNxgISlSEpqVUCB1jk-55" value="" style="endArrow=none;html=1;rounded=0;strokeColor=#FF230A;" edge="1" parent="1">
          <mxGeometry width="50" height="50" relative="1" as="geometry">
            <mxPoint x="480" y="560" as="sourcePoint" />
            <mxPoint x="440" y="500" as="targetPoint" />
            <Array as="points">
              <mxPoint x="460" y="530" />
            </Array>
          </mxGeometry>
        </mxCell>
        <mxCell id="6XeNxgISlSEpqVUCB1jk-56" value="" style="endArrow=none;html=1;rounded=0;strokeColor=#FF230A;" edge="1" parent="1">
          <mxGeometry width="50" height="50" relative="1" as="geometry">
            <mxPoint x="440" y="630" as="sourcePoint" />
            <mxPoint x="480" y="570" as="targetPoint" />
            <Array as="points">
              <mxPoint x="460" y="600" />
            </Array>
          </mxGeometry>
        </mxCell>
        <mxCell id="6XeNxgISlSEpqVUCB1jk-57" value="" style="endArrow=none;html=1;rounded=0;strokeColor=#FF230A;" edge="1" parent="1">
          <mxGeometry width="50" height="50" relative="1" as="geometry">
            <mxPoint x="480" y="630" as="sourcePoint" />
            <mxPoint x="440" y="570" as="targetPoint" />
            <Array as="points">
              <mxPoint x="460" y="600" />
            </Array>
          </mxGeometry>
        </mxCell>
      </root>
    </mxGraphModel>
  </diagram>
</mxfile>
